<svg width="40" height="40" viewBox="0 0 40 40" fill="none" xmlns="http://www.w3.org/2000/svg">
<rect x="0.5" y="0.5" width="39" height="39" rx="19.5" stroke="black"/>
<path fill-rule="evenodd" clip-rule="evenodd" d="M9.5 20C9.5 19.5858 9.83579 19.25 10.25 19.25H27.9393L23.2197 14.5303C22.9268 14.2374 22.9268 13.7626 23.2197 13.4697C23.5126 13.1768 23.9874 13.1768 24.2803 13.4697L30.2803 19.4697C30.5732 19.7626 30.5732 20.2374 30.2803 20.5303L24.2803 26.5303C23.9874 26.8232 23.5126 26.8232 23.2197 26.5303C22.9268 26.2374 22.9268 25.7626 23.2197 25.4697L27.9393 20.75H10.25C9.83579 20.75 9.5 20.4142 9.5 20Z" fill="black"/>
</svg>
