<svg width="11" height="20" viewBox="0 0 11 20" fill="none" xmlns="http://www.w3.org/2000/svg">
<path fill-rule="evenodd" clip-rule="evenodd" d="M10.531 0.468876C10.6008 0.538544 10.6563 0.621308 10.6941 0.712426C10.7319 0.803543 10.7513 0.901225 10.7513 0.999876C10.7513 1.09853 10.7319 1.19621 10.6941 1.28733C10.6563 1.37844 10.6008 1.46121 10.531 1.53088L2.0605 9.99988L10.531 18.4689C10.6718 18.6097 10.7509 18.8007 10.7509 18.9999C10.7509 19.199 10.6718 19.39 10.531 19.5309C10.3902 19.6717 10.1992 19.7508 10 19.7508C9.80083 19.7508 9.60983 19.6717 9.469 19.5309L0.468997 10.5309C0.399153 10.4612 0.343738 10.3784 0.305928 10.2873C0.268119 10.1962 0.248657 10.0985 0.248657 9.99988C0.248657 9.90122 0.268119 9.80354 0.305928 9.71243C0.343738 9.62131 0.399153 9.53854 0.468997 9.46888L9.469 0.468876C9.53867 0.399031 9.62143 0.343617 9.71255 0.305807C9.80367 0.267997 9.90135 0.248535 10 0.248535C10.0986 0.248535 10.1963 0.267997 10.2874 0.305807C10.3786 0.343617 10.4613 0.399031 10.531 0.468876Z" fill="#4B4B4B"/>
</svg>
