<svg width="11" height="20" viewBox="0 0 11 20" fill="none" xmlns="http://www.w3.org/2000/svg">
<path fill-rule="evenodd" clip-rule="evenodd" d="M0.46912 0.468876C0.538788 0.399031 0.621551 0.343617 0.712669 0.305807C0.803787 0.267997 0.901469 0.248535 1.00012 0.248535C1.09877 0.248535 1.19645 0.267997 1.28757 0.305807C1.37869 0.343617 1.46145 0.399031 1.53112 0.468876L10.5311 9.46888C10.601 9.53854 10.6564 9.62131 10.6942 9.71243C10.732 9.80354 10.7515 9.90122 10.7515 9.99988C10.7515 10.0985 10.732 10.1962 10.6942 10.2873C10.6564 10.3784 10.601 10.4612 10.5311 10.5309L1.53112 19.5309C1.39029 19.6717 1.19928 19.7508 1.00012 19.7508C0.800956 19.7508 0.609949 19.6717 0.46912 19.5309C0.32829 19.39 0.249172 19.199 0.249172 18.9999C0.249172 18.8007 0.32829 18.6097 0.46912 18.4689L8.93962 9.99988L0.46912 1.53088C0.399275 1.46121 0.34386 1.37844 0.306051 1.28733C0.268241 1.19621 0.248779 1.09853 0.248779 0.999876C0.248779 0.901225 0.268241 0.803543 0.306051 0.712426C0.34386 0.621308 0.399275 0.538544 0.46912 0.468876Z" fill="#4B4B4B"/>
</svg>
